<?xml version="1.0" standalone="no"?>
<!DOCTYPE svg PUBLIC "-//W3C//DTD SVG 20010904//EN"
 "http://www.w3.org/TR/2001/REC-SVG-20010904/DTD/svg10.dtd">
<svg version="1.0" xmlns="http://www.w3.org/2000/svg"
 width="1024.000000pt" height="1024.000000pt" viewBox="0 0 1024.000000 1024.000000"
 preserveAspectRatio="xMidYMid meet">
<metadata>
Created by potrace 1.14, written by Peter Selinger 2001-2017
</metadata>
<g transform="translate(0.000000,1024.000000) scale(0.100000,-0.100000)"
fill="#000000" stroke="none">
<path d="M586 8913 c-4 -4 -13 -8 -19 -8 -42 -1 -215 -71 -237 -95 -3 -3 -21
-17 -40 -30 -96 -65 -192 -192 -236 -312 -45 -121 -43 16 -43 -3343 -1 -3378
-2 -3244 43 -3355 8 -19 17 -42 20 -50 4 -8 15 -28 26 -45 11 -16 24 -39 29
-50 12 -26 116 -134 161 -167 81 -60 196 -110 285 -126 22 -4 2076 -7 4565 -7
l4525 0 72 23 c40 12 75 21 77 20 2 -2 12 5 22 14 11 9 31 20 47 23 15 4 27
10 27 14 0 4 14 15 32 25 41 25 138 122 175 178 45 65 77 135 99 213 19 68 19
143 19 3285 0 1768 -3 3229 -7 3245 -4 17 -11 42 -17 56 -5 15 -7 30 -4 33 4
3 2 6 -4 6 -6 0 -13 12 -16 28 -7 34 -70 136 -122 197 -39 45 -145 132 -175
143 -8 3 -23 12 -34 21 -10 9 -21 15 -25 15 -3 -1 -17 3 -31 8 -14 6 -54 19
-90 29 -62 17 -256 18 -4591 18 -2489 1 -4529 -2 -4533 -6z m6126 -805 c119
-55 191 -165 195 -300 2 -84 -12 -136 -58 -203 -29 -43 -73 -85 -89 -85 -6 0
-10 -4 -10 -9 0 -18 -112 -52 -174 -52 -319 -3 -466 383 -227 598 39 36 88 62
129 69 15 3 29 8 32 11 14 14 150 -5 202 -29z m1119 16 c91 -27 162 -90 207
-184 23 -47 27 -68 27 -145 -1 -78 -5 -97 -28 -143 -110 -212 -379 -259 -546
-94 -70 69 -94 127 -98 230 -2 71 2 92 25 145 68 160 243 241 413 191z m1174
-5 c17 -7 33 -12 36 -11 4 1 19 -10 33 -23 14 -13 26 -21 26 -18 0 4 16 -11
35 -33 88 -97 116 -224 76 -342 -23 -68 -23 -68 -73 -123 -34 -37 -118 -96
-118 -82 0 5 -4 3 -8 -4 -8 -13 -77 -25 -137 -23 -128 3 -242 81 -300 205 -22
46 -24 60 -25 135 -2 68 3 90 32 148 38 79 125 153 218 183 34 12 168 4 205
-12z m-8452 -1143 c2 2 322 4 710 3 389 0 714 0 722 0 8 0 44 0 80 0 36 0 72
0 80 0 8 0 44 0 80 0 36 0 72 0 80 0 8 0 44 0 80 0 36 0 72 0 80 0 8 0 44 0
80 0 36 0 72 0 80 0 8 0 44 0 80 0 36 0 72 0 80 0 8 0 44 0 80 0 36 0 72 0 80
0 8 0 44 0 80 0 36 0 72 0 80 0 8 0 332 -1 720 -1 388 0 712 1 720 1 8 0 44 0
80 0 36 0 72 0 80 0 8 0 44 0 80 0 36 0 72 0 80 0 8 0 44 0 80 0 36 0 71 0 78
0 10 -1 3265 -1 3332 0 11 0 164 0 340 0 176 0 326 0 333 0 6 0 41 0 77 0 36
0 72 0 80 0 8 0 44 0 80 0 36 0 72 0 80 0 8 0 44 0 80 0 36 0 73 0 83 0 9 0
69 0 132 0 62 0 116 -2 118 -4 3 -2 13 0 24 6 49 26 46 161 45 -2554 l-2
-2542 -26 -37 c-32 -46 -70 -77 -106 -86 -16 -3 -2069 -6 -4563 -6 l-4535 -1
-40 21 c-22 11 -53 40 -70 63 l-30 43 -3 2548 -2 2549 22 3 c13 2 35 1 50 -3
14 -4 28 -5 31 -3z"/>
<path d="M5330 5913 c-35 -11 -106 -48 -128 -67 -45 -39 -82 -120 -99 -216 -2
-14 -9 -43 -15 -65 -6 -22 -13 -47 -14 -55 -3 -16 -72 -311 -80 -342 -9 -38
-13 -55 -27 -118 -13 -59 -53 -230 -63 -272 -2 -10 -6 -27 -9 -39 -2 -11 -6
-28 -9 -37 -3 -9 -7 -28 -10 -42 -2 -14 -9 -45 -16 -70 -7 -25 -14 -56 -17
-70 -4 -21 -12 -56 -27 -120 -16 -66 -46 -194 -50 -212 -2 -13 -15 -70 -29
-128 -33 -135 -49 -201 -52 -220 -1 -8 -5 -22 -7 -30 -7 -19 -78 -328 -83
-355 -3 -23 -50 -221 -66 -280 -6 -22 -12 -69 -14 -105 -8 -160 125 -292 286
-284 134 6 236 100 264 243 2 12 7 31 10 41 3 10 8 27 10 37 10 48 46 201 75
323 17 74 33 143 35 153 2 10 6 26 9 35 3 9 7 28 10 42 2 14 12 57 21 95 9 39
18 77 20 85 2 8 4 15 5 15 1 0 3 9 4 20 2 11 13 59 24 107 12 48 24 98 26 110
3 13 10 41 15 63 5 22 12 51 15 65 3 14 10 45 16 70 6 25 13 56 16 70 3 14 10
43 16 65 5 22 11 47 13 55 6 30 57 248 91 395 20 83 38 158 40 168 2 10 5 26
8 35 3 9 8 31 11 47 8 38 13 59 15 63 3 3 20 78 26 117 1 6 3 12 4 15 1 3 3
12 5 20 2 8 13 56 25 105 12 50 24 101 28 115 13 57 0 200 -19 200 -5 0 -9 6
-9 14 0 33 -104 120 -156 131 -40 9 -126 13 -144 8z"/>
<path d="M3904 5537 c-31 -12 -80 -42 -100 -61 -6 -6 -40 -36 -75 -66 -35 -30
-76 -66 -90 -80 -15 -14 -38 -34 -51 -44 -23 -20 -249 -217 -258 -226 -3 -3
-59 -52 -125 -110 -66 -57 -125 -109 -131 -115 -6 -5 -37 -32 -69 -60 -32 -27
-66 -57 -74 -65 -9 -9 -50 -45 -91 -80 -96 -82 -125 -114 -146 -159 -23 -47
-25 -55 -26 -126 -1 -99 31 -153 156 -260 32 -27 68 -59 80 -70 13 -11 48 -42
80 -70 32 -27 81 -71 110 -96 28 -26 67 -59 86 -75 19 -16 42 -36 50 -44 8 -9
44 -40 79 -70 35 -30 74 -64 86 -75 11 -11 50 -45 85 -75 35 -30 73 -64 86
-75 12 -11 48 -42 80 -70 31 -27 89 -78 128 -112 89 -77 152 -104 238 -99 100
6 182 60 231 151 17 31 22 58 22 120 0 122 -24 159 -205 315 -35 30 -74 64
-86 75 -12 11 -48 43 -80 70 -32 28 -68 59 -80 70 -23 21 -51 46 -124 109 -82
71 -173 151 -196 171 -12 11 -47 42 -78 68 l-56 49 33 26 c37 31 86 74 133
117 18 17 52 46 75 65 24 19 50 42 58 50 9 9 47 43 85 75 39 33 81 71 96 85
14 14 47 42 72 63 26 22 64 54 85 73 21 19 42 34 46 34 5 0 5 5 2 10 -3 6 -2
10 4 10 10 0 59 41 132 111 143 138 108 371 -70 455 -44 21 -164 27 -207 11z"/>
<path d="M6164 5537 c-198 -75 -248 -321 -93 -467 72 -69 129 -119 129 -116 0
3 12 -8 28 -22 15 -15 61 -56 101 -92 41 -36 91 -79 110 -96 20 -18 127 -111
239 -209 111 -97 202 -180 202 -184 0 -4 -26 -30 -57 -57 -31 -27 -68 -60 -82
-73 -14 -13 -50 -44 -80 -70 -29 -25 -63 -54 -75 -64 -11 -10 -50 -44 -85 -75
-35 -31 -73 -65 -85 -75 -12 -10 -47 -41 -79 -69 -32 -29 -68 -60 -80 -71
-162 -138 -228 -204 -249 -247 -73 -146 -2 -323 152 -381 93 -35 204 -13 285
57 17 14 59 51 94 82 35 31 75 66 89 77 14 11 47 41 73 66 27 25 49 44 49 42
0 -4 56 46 112 100 16 15 31 27 33 27 2 0 17 12 33 28 16 15 58 52 93 82 35
30 75 66 91 80 15 14 51 45 79 70 29 25 63 55 77 68 14 12 48 41 75 65 192
162 232 215 240 314 4 55 -12 126 -38 169 -20 31 -37 48 -135 134 -34 30 -75
66 -90 80 -15 14 -50 44 -76 66 -27 23 -58 50 -70 60 -12 11 -52 46 -89 79
-38 33 -76 67 -85 75 -9 8 -50 44 -91 80 -41 36 -79 69 -85 75 -6 5 -35 30
-64 55 -30 25 -70 61 -91 80 -20 19 -48 44 -62 55 -13 11 -54 46 -90 78 -91
81 -139 116 -159 117 -9 0 -19 4 -22 8 -8 13 -137 12 -172 -1z"/>
</g>
</svg>
